<?xml version="1.0" encoding="utf-8"?>
<!-- Generator: Adobe Illustrator 15.0.0, SVG Export Plug-In . SVG Version: 6.00 Build 0)  -->
<!DOCTYPE svg PUBLIC "-//W3C//DTD SVG 1.1//EN" "http://www.w3.org/Graphics/SVG/1.1/DTD/svg11.dtd">
<svg version="1.1" id="Layer_1" xmlns="http://www.w3.org/2000/svg" xmlns:xlink="http://www.w3.org/1999/xlink" x="0px" y="0px"
	 width="100px" height="100px" viewBox="0 0 100 100" enable-background="new 0 0 100 100" xml:space="preserve">
<path fill="#FFFFFF" d="M97.97,1.415c-1.134-1.134-2.739-1.709-4.772-1.709c-5.78,0-14.427,4.81-17.606,7.991L61.434,21.853
	L23.688,11.097c-0.748-0.214-1.557-0.005-2.109,0.547l-9.638,9.638c-0.47,0.47-0.696,1.131-0.613,1.791
	c0.083,0.659,0.467,1.243,1.039,1.582l29.075,17.19L24.003,59.283l-13.477-1.19c-0.631-0.056-1.26,0.172-1.709,0.622l-8.143,8.142
	c-0.504,0.505-0.725,1.226-0.591,1.926c0.134,0.702,0.607,1.29,1.262,1.571l19.607,8.426l8.426,19.607
	c0.282,0.655,0.87,1.127,1.57,1.262c0.136,0.026,0.271,0.04,0.406,0.04c0.564,0,1.113-0.223,1.52-0.63l8.143-8.142
	c0.449-0.451,0.677-1.076,0.621-1.711l-1.226-13.872L57.946,57.8l17.988,30.424c0.339,0.571,0.922,0.956,1.581,1.039
	c0.663,0.084,1.322-0.145,1.791-0.613l9.638-9.639c0.551-0.553,0.762-1.359,0.547-2.109L78.263,37.487l13.56-13.56
	c2.129-2.129,4.728-6.402,6.321-10.393c2.23-5.585,2.216-9.73-0.04-11.985L97.97,1.415z M94.149,11.94
	c-1.545,3.868-3.919,7.496-5.368,8.945L74.327,35.34c-0.552,0.552-0.761,1.36-0.548,2.11l11.23,39.414l-6.783,6.783L60.24,53.227
	c-0.34-0.573-0.923-0.956-1.582-1.039c-0.665-0.085-1.321,0.143-1.791,0.611L36.663,73.003c-0.45,0.45-0.678,1.076-0.622,1.711
	l1.226,13.871l-5.189,5.189l-7.512-17.481c-0.217-0.506-0.621-0.909-1.127-1.127L5.959,67.654l5.188-5.189l13.478,1.19
	c0.63,0.06,1.26-0.172,1.71-0.622l20.107-20.108c0.47-0.469,0.696-1.131,0.613-1.79c-0.083-0.659-0.467-1.243-1.039-1.582
	L16.943,22.363l6.783-6.783l37.746,10.755c0.749,0.212,1.559,0.004,2.109-0.548l15.051-15.051
	c2.658-2.658,10.241-6.731,14.566-6.731c0.827,0,1.44,0.159,1.73,0.448l0.133,0.133C95.781,5.308,95.777,7.86,94.149,11.94z"/>
</svg>
