<?xml version="1.0" encoding="utf-8"?>
<!-- Generator: Adobe Illustrator 15.0.0, SVG Export Plug-In . SVG Version: 6.00 Build 0)  -->
<!DOCTYPE svg PUBLIC "-//W3C//DTD SVG 1.1//EN" "http://www.w3.org/Graphics/SVG/1.1/DTD/svg11.dtd">
<svg version="1.1" id="Layer_1" xmlns="http://www.w3.org/2000/svg" xmlns:xlink="http://www.w3.org/1999/xlink" x="0px" y="0px"
	 width="100px" height="100px" viewBox="0 0 100 100" enable-background="new 0 0 100 100" xml:space="preserve">
<g id="Captions">
</g>
<g id="Your_Icon">
	<path fill="#FFFFFF" d="M50,0.334C22.568,0.334,0.333,22.569,0.333,50c0,27.43,22.235,49.667,49.667,49.667
		c27.43,0,49.667-22.236,49.667-49.667C99.666,22.569,77.43,0.334,50,0.334z M55.89,3.806l0.328-0.114l0.342,0.054
		c11.055,1.718,20.495,6.694,28.056,14.798l1.773,1.902l-2.564,0.417c-7.742,1.251-15.273,3.493-22.391,6.662
		c-4.797,2.113-9.53,4.48-14.075,7.036c-4.956,2.708-9.842,5.618-14.535,8.659l-1.196,0.776l-0.742-1.222
		c-0.948-1.563-1.847-3.146-2.687-4.724l-0.572-1.078l0.991-0.705c6.765-4.807,11.9-11.174,15.261-18.93
		c1.218-2.863,2.771-5.596,4.604-8.117C50.341,6.672,52.762,4.904,55.89,3.806z M21.719,13.176l0.127-0.465l0.391-0.285
		c6.9-5.067,14.64-8.068,23.006-8.929l3.492-0.357l-2.304,2.649c-2.567,2.952-4.626,6.315-6.114,10.001
		c-2.946,6.708-7.338,12.314-13.076,16.703l-1.36,1.042l-0.734-1.546c-2.085-4.387-3.398-9.048-3.908-13.856
		C21.099,16.483,21.257,14.872,21.719,13.176z M5.107,36.904c1.955-6.86,5.365-12.976,10.14-18.181l2.09-2.28l0.309,3.077
		c0.523,5.167,1.969,10.202,4.3,14.966l0.591,1.206l-1.187,0.63c-2.332,1.235-4.849,2.139-7.483,2.691
		c-1.064,0.224-2.139,0.335-3.193,0.335c-1.571,0-3.139-0.252-4.665-0.746l-1.272-0.411L5.107,36.904z M6.419,67.39l-0.878-2.637
		c-1.589-4.778-2.394-9.721-2.394-14.69c0-2.216,0.158-4.393,0.471-6.47l0.238-1.589l1.539,0.472c1.652,0.504,3.428,0.76,5.276,0.76
		c4.322-0.192,8.546-1.354,12.507-3.447l1.205-0.639l0.658,1.196c0.842,1.54,1.73,3.077,2.656,4.594l0.678,1.113l-1.067,0.746
		c-4.994,3.495-9.702,7.473-13.985,11.83c-1.945,1.998-3.738,4.18-5.325,6.478L6.419,67.39z M25.739,90.036
		c-7.182-4.365-12.88-10.307-16.932-17.658l-0.363-0.654l0.352-0.667c1.172-2.205,2.581-4.339,4.182-6.338
		c4.745-5.565,10.221-10.476,16.302-14.635l1.159-0.792l0.777,1.167c1.604,2.406,3.271,4.796,4.978,7.136l0.733,1.008l-0.926,0.837
		c-3.552,3.212-6.275,7.09-8.086,11.525c-1.82,5.771-1.874,11.687-0.127,17.481l1.045,3.468L25.739,90.036z M67.34,93.487
		c-5.556,2.171-11.366,3.307-17.27,3.374H50.05h-0.016c-5.396-0.075-10.598-0.923-15.459-2.523l-0.561-0.185l-0.257-0.531
		c-3.093-6.445-4.006-13.128-2.713-19.866c1.453-4.278,3.756-7.859,6.892-10.831l1.146-1.086l0.928,1.275
		c4.642,6.365,9.774,12.439,15.252,18.051c3.725,3.727,7.87,7.05,12.315,9.86l2.315,1.466L67.34,93.487z M94.623,64.103
		C91.05,74.978,84.335,83.615,74.664,89.767L74.08,90.14l-0.838-0.32c-5.39-2.794-10.281-6.445-14.531-10.85
		c-5.683-5.738-10.978-11.979-15.729-18.531l-0.872-1.205l1.265-0.787c3.228-2.008,6.835-3.024,10.724-3.024
		c4.357,0.041,8.67,0.686,12.826,1.917c8.647,2.011,17.617,3.684,26.575,4.953l1.638,0.232L94.623,64.103z M96.002,58.625
		l-1.349-0.181c-8.967-1.207-17.97-2.856-26.763-4.898c-4.518-1.316-9.133-1.972-13.789-1.972l-0.755,0.007
		c-4.478,0.064-8.656,1.314-12.41,3.714l-1.097,0.7l-0.769-1.045c-1.628-2.223-3.152-4.424-4.528-6.55l-0.748-1.153l1.151-0.759
		c4.415-2.903,8.97-5.67,13.534-8.232c4.986-2.801,10.224-5.355,15.564-7.595c7.618-3.323,15.749-5.514,24.144-6.5l0.866-0.104
		l0.47,0.737c4.791,7.571,7.254,16.057,7.329,25.222c-0.062,2.448-0.279,4.877-0.645,7.264L96.002,58.625z"/>
</g>
</svg>
