<?xml version="1.0" encoding="utf-8"?>
<!-- Generator: Adobe Illustrator 15.0.0, SVG Export Plug-In . SVG Version: 6.00 Build 0)  -->
<!DOCTYPE svg PUBLIC "-//W3C//DTD SVG 1.1//EN" "http://www.w3.org/Graphics/SVG/1.1/DTD/svg11.dtd">
<svg version="1.1" id="Layer_1" xmlns="http://www.w3.org/2000/svg" xmlns:xlink="http://www.w3.org/1999/xlink" x="0px" y="0px"
	 width="100px" height="100px" viewBox="0 0 100 100" enable-background="new 0 0 100 100" xml:space="preserve">
<path id="gear-5-icon_1_" fill="#FFFFFF" d="M55.864,6.957l3.653,10.27c2.449,0.71,4.804,1.689,6.991,2.903l9.852-4.682l8.181,8.178
	l-4.684,9.845c1.214,2.204,2.193,4.542,2.898,7.003l10.276,3.641v11.574l-10.276,3.653c-0.705,2.455-1.686,4.806-2.898,6.997
	l4.684,9.846L76.36,84.37l-9.852-4.686c-2.192,1.216-4.542,2.196-6.991,2.906l-3.653,10.271H44.297l-3.656-10.271
	c-2.453-0.71-4.802-1.69-6.996-2.906l-9.85,4.686l-8.178-8.185l4.688-9.846c-1.215-2.198-2.2-4.542-2.904-6.997L7.131,55.689V44.115
	l10.271-3.641c0.704-2.461,1.689-4.805,2.904-7.003l-4.689-9.845l8.178-8.178l9.851,4.682c2.199-1.214,4.542-2.193,6.996-2.903
	l3.656-10.27H55.864 M50.077,65.669c8.698,0,15.752-7.055,15.752-15.752c0-8.699-7.054-15.758-15.752-15.758
	c-8.701,0-15.758,7.059-15.758,15.758C34.319,58.614,41.376,65.669,50.077,65.669 M60.768,0h-4.906H44.293h-4.909l-1.651,4.621
	l-2.522,7.101c-0.544,0.213-1.09,0.437-1.627,0.678l-6.802-3.245l-4.436-2.104l-3.474,3.475l-8.18,8.172l-3.475,3.479l2.106,4.437
	l3.234,6.812c-0.236,0.538-0.459,1.075-0.669,1.617L4.79,37.571L0.158,39.21v4.917v11.57v4.921l4.631,1.64l7.099,2.526
	c0.21,0.538,0.434,1.085,0.669,1.618l-3.234,6.805l-2.107,4.441l3.474,3.476l8.182,8.177l3.474,3.47l4.436-2.105l6.802-3.235
	c0.539,0.231,1.083,0.456,1.628,0.671l2.523,7.102l1.65,4.621h4.912h11.567h4.905l1.65-4.621l2.523-7.102
	c0.548-0.215,1.091-0.438,1.628-0.671l6.801,3.235l4.437,2.105l3.474-3.47l8.185-8.177l3.474-3.476l-2.109-4.441l-3.232-6.805
	c0.234-0.537,0.459-1.08,0.671-1.618l7.098-2.526l4.633-1.64v-4.921v-11.57V39.21l-4.633-1.639l-7.098-2.529
	c-0.212-0.542-0.436-1.085-0.671-1.617l3.232-6.812l2.109-4.437l-3.474-3.479l-8.186-8.172l-3.473-3.475l-4.437,2.104l-6.801,3.245
	c-0.539-0.241-1.08-0.465-1.628-0.678L62.42,4.621L60.768,0L60.768,0z M50.077,58.713c-4.853,0-8.796-3.944-8.796-8.794
	c0-4.851,3.943-8.798,8.796-8.798c4.847,0,8.79,3.948,8.79,8.798C58.867,54.769,54.927,58.713,50.077,58.713L50.077,58.713z"/>
</svg>
