<?xml version="1.0" encoding="utf-8"?>
<!-- Generator: Adobe Illustrator 15.0.0, SVG Export Plug-In . SVG Version: 6.00 Build 0)  -->
<!DOCTYPE svg PUBLIC "-//W3C//DTD SVG 1.1//EN" "http://www.w3.org/Graphics/SVG/1.1/DTD/svg11.dtd">
<svg version="1.1" id="Layer_1" xmlns="http://www.w3.org/2000/svg" xmlns:xlink="http://www.w3.org/1999/xlink" x="0px" y="0px"
	 width="100px" height="100px" viewBox="0 0 100 100" enable-background="new 0 0 100 100" xml:space="preserve">
<path fill="#FFFFFF" d="M83.814,68.961c-5.963-9.929-18.394-13.456-27.718-7.855c-2.418,1.452-4.435,3.415-5.974,5.753
	c-6.532-8.268-11.82-18.118-14.986-25.491c2.921-0.213,5.73-1.094,8.263-2.616c9.316-5.596,12.043-18.229,6.081-28.161
	c-5.965-9.929-18.4-13.453-27.716-7.856c-6.261,3.762-9.493,10.88-8.923,19.335c0.001,0.021-0.001,0.042,0,0.062
	c0.001,0.017,0.004,0.046,0.007,0.069c0.056,0.771,0.132,1.55,0.251,2.342c0.028,0.187,0.083,0.361,0.152,0.527
	c1.735,10.762,9.773,47.846,40.296,69.062c1.604,1.386,3.399,2.515,5.303,3.381c0.087,0.051,0.171,0.104,0.259,0.154
	c0.223,0.129,0.46,0.2,0.698,0.25c2.726,1.095,5.627,1.676,8.465,1.676c3.393,0,6.688-0.807,9.464-2.473
	C87.051,91.524,89.778,78.891,83.814,68.961z M75.402,93.236c-4.016,2.412-9.511,2.423-14.284,0.353
	C23.552,71.62,17.517,23.094,17.351,21.68c-0.45-6.754,1.942-12.174,6.747-15.061c7.175-4.31,16.82-1.483,21.499,6.306
	c4.677,7.789,2.647,17.633-4.529,21.943C38.354,36.496,35.22,37.16,32,36.789c-0.03-0.003-0.059,0.001-0.088-0.001
	c-0.08-0.005-0.158-0.005-0.238-0.003c-0.073,0.002-0.145,0.006-0.216,0.015c-0.072,0.009-0.142,0.024-0.213,0.041
	c-0.078,0.018-0.153,0.036-0.228,0.061c-0.029,0.01-0.06,0.014-0.088,0.024c-0.041,0.016-0.074,0.04-0.112,0.056
	c-0.069,0.031-0.136,0.064-0.201,0.102c-0.067,0.04-0.132,0.082-0.195,0.126c-0.055,0.04-0.106,0.079-0.157,0.124
	c-0.061,0.052-0.118,0.108-0.172,0.166c-0.046,0.048-0.089,0.1-0.13,0.153c-0.047,0.06-0.091,0.123-0.131,0.187
	c-0.039,0.06-0.073,0.121-0.104,0.186c-0.034,0.067-0.065,0.136-0.092,0.206c-0.025,0.066-0.048,0.132-0.067,0.2
	c-0.023,0.078-0.038,0.159-0.052,0.239c-0.007,0.039-0.02,0.074-0.025,0.113c-0.003,0.029,0.001,0.056-0.001,0.085
	c-0.007,0.082-0.006,0.164-0.003,0.247c0.002,0.071,0.005,0.142,0.013,0.21c0.009,0.072,0.024,0.143,0.041,0.214
	c0.018,0.079,0.038,0.156,0.063,0.231c0.01,0.029,0.013,0.057,0.024,0.085c3.282,8.543,10.271,22.19,19.169,32.532
	c0.016,0.019,0.033,0.027,0.049,0.045c0.066,0.071,0.139,0.136,0.214,0.201c0.048,0.039,0.095,0.084,0.145,0.12
	c0.066,0.047,0.142,0.086,0.216,0.125c0.065,0.037,0.129,0.079,0.198,0.11c0.006,0.002,0.014,0.006,0.021,0.01
	c0.071,0.029,0.143,0.043,0.213,0.065c0.071,0.021,0.137,0.049,0.209,0.063c0.137,0.027,0.275,0.042,0.413,0.044
	c0.014,0,0.028,0.005,0.042,0.005c0,0,0,0,0.002,0c0.024,0,0.049-0.007,0.074-0.007c0.114-0.005,0.229-0.015,0.342-0.035
	c0.049-0.009,0.09-0.024,0.137-0.037c0.089-0.022,0.177-0.046,0.264-0.08c0.053-0.02,0.102-0.047,0.152-0.069
	c0.073-0.035,0.146-0.07,0.217-0.115c0.059-0.037,0.111-0.077,0.167-0.118c0.038-0.03,0.081-0.054,0.119-0.086
	c0.016-0.015,0.026-0.03,0.044-0.047c0.062-0.056,0.117-0.118,0.175-0.185c0.046-0.051,0.091-0.102,0.131-0.157
	c0.041-0.057,0.075-0.118,0.112-0.179c0.042-0.071,0.084-0.144,0.118-0.217c0.011-0.021,0.023-0.037,0.032-0.059
	c1.201-2.874,3.218-5.223,5.829-6.791c7.177-4.312,16.822-1.481,21.5,6.304S82.575,88.927,75.402,93.236z"/>
</svg>
