<?xml version="1.0" encoding="utf-8"?>
<!-- Generator: Adobe Illustrator 15.0.0, SVG Export Plug-In . SVG Version: 6.00 Build 0)  -->
<!DOCTYPE svg PUBLIC "-//W3C//DTD SVG 1.1//EN" "http://www.w3.org/Graphics/SVG/1.1/DTD/svg11.dtd">
<svg version="1.1" id="Layer_1" xmlns="http://www.w3.org/2000/svg" xmlns:xlink="http://www.w3.org/1999/xlink" x="0px" y="0px"
	 width="96px" height="96px" viewBox="0 0 96 96" enable-background="new 0 0 96 96" xml:space="preserve">
<path fill="#FFFFFF" d="M88.952,83H7.047c-2.818,0-5.524-2.257-6.442-5.369c-1.204-4.079,0.787-8.271,5.332-11.199l28.691-17.93
	c0.958-0.603,2.224-0.307,2.822,0.65c0.598,0.955,0.308,2.22-0.651,2.817L8.132,69.887c-2.948,1.905-4.271,4.316-3.599,6.589
	c0.446,1.523,1.629,2.429,2.514,2.429h81.905c0.884,0,2.063-0.914,2.515-2.425c0.667-2.28-0.651-4.688-3.629-6.604l-42.824-21.91
	c-0.68-0.352-1.11-1.052-1.11-1.822V33.857c0-1.13,0.917-2.047,2.048-2.047c4.607,0,10.238-3.78,10.238-8.19
	c0-4.513-3.67-8.19-8.191-8.19c-4.517,0-8.19,3.677-8.19,8.19c0,1.13-0.917,2.047-2.047,2.047s-2.048-0.917-2.048-2.047
	c0-6.774,5.512-12.286,12.286-12.286c6.774,0,12.286,5.512,12.286,12.286c0,6.216-6.217,11.176-12.286,12.122v9.149l41.89,21.438
	c4.713,3.031,6.713,7.224,5.508,11.307C94.48,80.743,91.77,83,88.952,83z"/>
</svg>
