<?xml version="1.0" encoding="utf-8"?>
<!-- Generator: Adobe Illustrator 15.0.0, SVG Export Plug-In . SVG Version: 6.00 Build 0)  -->
<!DOCTYPE svg PUBLIC "-//W3C//DTD SVG 1.1//EN" "http://www.w3.org/Graphics/SVG/1.1/DTD/svg11.dtd">
<svg version="1.1" id="Layer_1" xmlns="http://www.w3.org/2000/svg" xmlns:xlink="http://www.w3.org/1999/xlink" x="0px" y="0px"
	 width="100px" height="100px" viewBox="0 0 100 100" enable-background="new 0 0 100 100" xml:space="preserve">
<path fill="#FFFFFF" d="M99.467,54.058L51.462,2.166c-0.757-0.82-2.145-0.82-2.902,0l-48,51.892
	c-0.768,0.825-0.741,2.15,0.059,2.943c0.8,0.801,2.075,0.774,2.842-0.058l6.272-6.781v47.341c0,1.149,1.331,2.497,2.443,2.497h24.41
	c1.112,0,2.443-1.348,2.443-2.497V65.021H61v32.479c0,1.15,1.327,2.499,2.438,2.499l24.751-0.004c1.112,0,2.011-0.935,2.011-2.086
	l0.082-47.757l6.28,6.789c0.395,0.427,0.923,0.643,1.448,0.643c0.503,0,1.005-0.189,1.396-0.584
	C100.207,56.208,100.233,54.883,99.467,54.058z M85.41,95.003H65.882V62.521c0-1.149-1.332-2.496-2.442-2.496H36.586
	c-1.111,0-2.439,1.347-2.439,2.496v32.48H14.585c0,0,0.002-50.047,0-50.086L50.009,6.621L85.41,44.917
	C85.406,44.957,85.41,95.003,85.41,95.003z"/>
</svg>
