<?xml version="1.0" encoding="utf-8"?>
<!-- Generator: Adobe Illustrator 15.0.0, SVG Export Plug-In . SVG Version: 6.00 Build 0)  -->
<!DOCTYPE svg PUBLIC "-//W3C//DTD SVG 1.1//EN" "http://www.w3.org/Graphics/SVG/1.1/DTD/svg11.dtd">
<svg version="1.1" id="svg" xmlns="http://www.w3.org/2000/svg" xmlns:xlink="http://www.w3.org/1999/xlink" x="0px" y="0px"
	 width="100px" height="100px" viewBox="0 0 100 100" enable-background="new 0 0 100 100" xml:space="preserve">
<path fill="#FFFFFF" d="M49.935,95.367c-0.215,0-0.432-0.044-0.635-0.131C34.58,88.928,19.026,76.059,9.678,62.453
	C9.338,61.96,9.301,61.32,9.58,60.791s0.828-0.86,1.425-0.86h0.271c0.847,0,1.541,0.653,1.606,1.482
	C21.823,74.064,36.208,85.945,49.935,92c18.24-8.038,36.39-25.57,43.41-41.734H78.93c-0.646,0-1.228-0.384-1.48-0.977l-7.88-18.386
	L57.928,71.648c-0.198,0.691-0.83,1.168-1.55,1.168s-1.352-0.477-1.549-1.168L48.72,50.266h-8.45c-0.611,0-1.167-0.345-1.44-0.891
	l-4.496-8.992L28.946,61.93c-0.164,0.656-0.717,1.14-1.387,1.211c-0.659,0.089-1.316-0.278-1.617-0.883l-5.997-11.996H4.134
	c-0.671,0-1.273-0.418-1.509-1.047C0.884,44.565,0,40.039,0,35.768C0,26.234,2.89,18.326,8.353,12.9
	c4.773-4.74,11.267-7.35,18.284-7.35c9.506,0,19.483,5.166,23.297,14.898c3.813-9.731,13.791-14.898,23.297-14.898
	c7.019,0,13.513,2.61,18.284,7.35c5.465,5.426,8.354,13.333,8.354,22.868c0,0.889-0.722,1.611-1.611,1.611
	c-0.888,0-1.61-0.722-1.61-1.611c0-8.657-2.56-15.774-7.401-20.582c-4.166-4.135-9.854-6.414-16.016-6.414
	c-10.776,0-21.685,7.061-21.685,20.553c0,0.889-0.724,1.61-1.611,1.61c-0.889,0-1.611-0.721-1.611-1.61
	c0-13.492-10.909-20.553-21.686-20.553c-6.161,0-11.849,2.278-16.015,6.414c-4.842,4.808-7.401,11.925-7.401,20.582
	c0,3.568,0.687,7.355,2.044,11.275H20.94c0.611,0,1.167,0.346,1.44,0.891l4.496,8.992l5.387-21.548
	c0.164-0.653,0.717-1.136,1.387-1.21c0.667-0.065,1.316,0.279,1.617,0.881l5.997,11.997h8.67c0.72,0,1.352,0.477,1.55,1.169
	l4.894,17.128l11.337-39.681c0.188-0.657,0.767-1.123,1.447-1.166c0.686-0.034,1.315,0.347,1.582,0.973l9.248,21.574h15.744
	c0.528,0,1.021,0.259,1.322,0.693c0.302,0.435,0.369,0.989,0.187,1.482c-7.612,20.342-29.242,38.548-46.673,46.018
	C50.366,95.323,50.15,95.367,49.935,95.367z"/>
</svg>
