<?xml version="1.0" encoding="utf-8"?>
<!-- Generator: Adobe Illustrator 15.0.0, SVG Export Plug-In . SVG Version: 6.00 Build 0)  -->
<!DOCTYPE svg PUBLIC "-//W3C//DTD SVG 1.1//EN" "http://www.w3.org/Graphics/SVG/1.1/DTD/svg11.dtd">
<svg version="1.1" id="Layer_1" xmlns="http://www.w3.org/2000/svg" xmlns:xlink="http://www.w3.org/1999/xlink" x="0px" y="0px"
	 width="100px" height="100px" viewBox="0 0 100 100" enable-background="new 0 0 100 100" xml:space="preserve">
<g>
	<path fill="#FFFFFF" d="M49.971,59.697L0.241,37.617l49.729-22.08L99.7,37.617l-19.892,8.852c-0.896,0.398-1.891,0-2.287-0.895
		c-0.398-0.895,0-1.89,0.895-2.287l12.73-5.669l-41.176-18.3l-41.176,18.3l41.176,18.301l15.217-6.763
		c0.896-0.398,1.891,0,2.288,0.896c0.397,0.895,0,1.889-0.895,2.288L49.971,59.697z"/>
	<path fill="#FFFFFF" d="M49.971,84.463c-21.185,0-31.827-9.051-31.827-14.023V50.945c0-0.996,0.795-1.791,1.79-1.791
		s1.79,0.795,1.79,1.791V70.34c0,1.889,7.36,10.543,28.247,10.543c21.283,0,28.246-7.857,28.246-10.543V50.945
		c0-0.996,0.796-1.791,1.791-1.791c0.994,0,1.79,0.795,1.79,1.791V70.34C81.798,76.207,71.852,84.463,49.971,84.463z"/>
	<path fill="#FFFFFF" d="M73.442,62.879c-0.994,0-1.79-0.795-1.79-1.789V48.558L51.96,40.303c-0.896-0.398-1.293-1.392-0.896-2.288
		c0.398-0.895,1.393-1.293,2.287-0.895l21.782,9.051V61.09C75.134,62.084,74.338,62.879,73.442,62.879z"/>
	<ellipse fill="#FFFFFF" cx="73.442" cy="63.875" rx="4.079" ry="6.066"/>
</g>
</svg>
