<?xml version="1.0" encoding="utf-8"?>
<!-- Generator: Adobe Illustrator 15.0.0, SVG Export Plug-In . SVG Version: 6.00 Build 0)  -->
<!DOCTYPE svg PUBLIC "-//W3C//DTD SVG 1.1//EN" "http://www.w3.org/Graphics/SVG/1.1/DTD/svg11.dtd">
<svg version="1.1" id="Layer_1" xmlns="http://www.w3.org/2000/svg" xmlns:xlink="http://www.w3.org/1999/xlink" x="0px" y="0px"
	 width="60px" height="60px" viewBox="0 0 60 60" enable-background="new 0 0 60 60" xml:space="preserve">
<g>
	<g id="Livello_110">
		<path fill="#FEFEFD" d="M40.535,21.796c0,6.016-4.902,10.896-10.947,10.896c-6.047,0-10.947-4.881-10.947-10.896
			c0-6.018,4.901-10.897,10.947-10.897C35.637,10.899,40.535,15.777,40.535,21.796 M51.895,21.796C51.895,9.758,42.094,0,30,0
			C17.907,0,8.103,9.758,8.103,21.796c0,5.293,1.897,10.145,5.049,13.92l16.866,24.223l17.113-24.576
			C47.744,34.597,52.02,28.501,51.895,21.796"/>
	</g>
	<g id="Livello_1_1_">
	</g>
</g>
</svg>
