<?xml version="1.0" encoding="utf-8"?>
<!-- Generator: Adobe Illustrator 15.0.0, SVG Export Plug-In . SVG Version: 6.00 Build 0)  -->
<!DOCTYPE svg PUBLIC "-//W3C//DTD SVG 1.1//EN" "http://www.w3.org/Graphics/SVG/1.1/DTD/svg11.dtd">
<svg version="1.1" id="Layer_1" xmlns="http://www.w3.org/2000/svg" xmlns:xlink="http://www.w3.org/1999/xlink" x="0px" y="0px"
	 width="90px" height="90px" viewBox="0 0 90 90" enable-background="new 0 0 90 90" xml:space="preserve">
<g id="Layer_1_1_" display="none">
	<path display="inline" d="M14.162,41.717c-2.579,0-4.673,2.093-4.673,4.674c0,2.578,2.094,4.672,4.673,4.672
		s4.673-2.094,4.673-4.672C18.835,43.811,16.741,41.717,14.162,41.717z M14.162,52.934c-3.608,0-6.542-2.937-6.542-6.543
		s2.934-6.542,6.542-6.542s6.542,2.934,6.542,6.542C20.704,49.997,17.77,52.934,14.162,52.934z M75.844,41.717
		c-2.58,0-4.673,2.093-4.673,4.674c0,2.578,2.093,4.672,4.673,4.672s4.674-2.094,4.674-4.672
		C80.518,43.811,78.424,41.717,75.844,41.717z M75.844,52.934c-3.605,0-6.542-2.937-6.542-6.543s2.937-6.542,6.542-6.542
		c3.607,0,6.541,2.934,6.541,6.542C82.385,49.997,79.451,52.934,75.844,52.934z M86.124,43.587c0-4.131-3.347-7.477-7.476-7.477
		h-1.871H13.228h-1.87c-4.13,0-7.476,3.346-7.476,7.477V58.54c0,4.129,3.346,7.478,7.476,7.478h7.477V60.41
		c0-4.133,3.346-7.477,7.477-7.477h37.381c4.133,0,7.479,3.344,7.479,7.477v5.607h7.479c4.129,0,7.477-3.349,7.477-7.478V43.587
		H86.124z M76.777,15.175c0-3.924-2.373-7.102-5.289-7.102h-52.97c-2.916,0-5.29,3.178-5.29,7.102V34.24h63.549V15.175z
		 M13.228,80.035c0,1.551,1.251,2.803,2.803,2.803h1.87c1.551,0,2.803-1.252,2.803-2.803V69.754h-7.476V80.035z M24.442,66.018
		h41.121h3.738v-4.674c0-3.607-2.935-6.542-6.542-6.542H27.246c-3.607,0-6.542,2.935-6.542,6.542v4.674H24.442z M69.302,80.035
		c0,1.551,1.251,2.803,2.804,2.803h1.869c1.551,0,2.805-1.252,2.805-2.803V69.754h-7.478V80.035z M80.518,69.568v10.467
		c0,3.605-2.937,6.542-6.543,6.542h-1.869c-3.604,0-6.541-2.937-6.541-6.542V69.754H24.442v10.281c0,3.605-2.934,6.542-6.542,6.542
		h-1.87c-3.608,0-6.542-2.937-6.542-6.542V69.568C4.198,68.67,0.142,64.09,0.142,58.54V43.587c0-5.552,4.056-10.169,9.346-11.065
		V15.175c0-6.075,3.962-10.841,9.028-10.841h52.97c5.064,0,9.029,4.766,9.029,10.841v17.346c5.291,0.896,9.346,5.513,9.346,11.065
		V58.54C89.861,64.092,85.809,68.67,80.518,69.568z"/>
</g>
<path fill="#FFFFFF" d="M14.099,41.022c-2.585,0-4.685,2.1-4.685,4.686s2.099,4.686,4.685,4.686c2.587,0,4.685-2.1,4.685-4.686
	S16.686,41.022,14.099,41.022z M14.099,52.269c-3.617,0-6.559-2.943-6.559-6.561s2.941-6.559,6.559-6.559
	c3.619,0,6.56,2.941,6.56,6.559C20.659,49.324,17.718,52.269,14.099,52.269z M75.944,41.022c-2.588,0-4.686,2.1-4.686,4.686
	s2.098,4.686,4.686,4.686c2.586,0,4.685-2.1,4.685-4.686S78.53,41.022,75.944,41.022z M75.944,52.269
	c-3.618,0-6.56-2.943-6.56-6.561s2.941-6.559,6.56-6.559c3.616,0,6.558,2.941,6.558,6.559
	C82.502,49.324,79.561,52.269,75.944,52.269z M86.253,42.897c0-4.142-3.356-7.497-7.498-7.497h-1.874H13.163H11.29
	c-4.141,0-7.497,3.355-7.497,7.497V57.89c0,4.141,3.355,7.497,7.497,7.497h7.496v-5.622c0-4.142,3.355-7.496,7.498-7.496h37.481
	c4.142,0,7.495,3.354,7.495,7.496v5.622h7.498c4.142,0,7.498-3.356,7.498-7.497V42.897H86.253z M76.881,14.411
	c0-3.935-2.381-7.12-5.304-7.12H18.466c-2.923,0-5.303,3.186-5.303,7.12v19.116h63.718V14.411z M13.163,79.439
	c0,1.557,1.256,2.812,2.812,2.812h1.875c1.555,0,2.812-1.256,2.812-2.812V69.133h-7.498V79.439z M24.407,65.386h41.23h3.747v-4.685
	c0-3.617-2.941-6.561-6.562-6.561H27.219c-3.618,0-6.559,2.941-6.559,6.561v4.685H24.407z M69.385,79.439
	c0,1.557,1.255,2.812,2.811,2.812h1.873c1.558,0,2.812-1.256,2.812-2.812V69.133h-7.497L69.385,79.439L69.385,79.439z
	 M80.629,68.947v10.492c0,3.618-2.942,6.561-6.561,6.561h-1.873c-3.616,0-6.56-2.942-6.56-6.561V69.133H24.407v10.307
	c0,3.618-2.941,6.561-6.559,6.561h-1.875c-3.617,0-6.559-2.942-6.559-6.561V68.947c-5.303-0.901-9.371-5.491-9.371-11.058V42.897
	c0-5.566,4.066-10.195,9.371-11.094V14.411c0-6.09,3.972-10.87,9.051-10.87h53.11c5.08,0,9.053,4.778,9.053,10.87v17.392
	C85.935,32.702,90,37.331,90,42.897V57.89C89.999,63.456,85.934,68.046,80.629,68.947z"/>
</svg>
