<?xml version="1.0" encoding="utf-8"?>
<!-- Generator: Adobe Illustrator 15.0.0, SVG Export Plug-In . SVG Version: 6.00 Build 0)  -->
<!DOCTYPE svg PUBLIC "-//W3C//DTD SVG 1.1//EN" "http://www.w3.org/Graphics/SVG/1.1/DTD/svg11.dtd">
<svg version="1.1" id="Layer_1" xmlns="http://www.w3.org/2000/svg" xmlns:xlink="http://www.w3.org/1999/xlink" x="0px" y="0px"
	 width="60px" height="60px" viewBox="0 0 60 60" enable-background="new 0 0 60 60" xml:space="preserve">
<g>
	<g id="Livello_110">
		<path fill="none" stroke="#FFFFFF" stroke-width="2" stroke-miterlimit="10" d="M39.771,21.54c0,5.644-4.598,10.222-10.269,10.222
			c-5.672,0-10.27-4.578-10.27-10.222c0-5.646,4.598-10.222,10.27-10.222C35.177,11.318,39.771,15.894,39.771,21.54 M50.428,21.54
			c0-11.292-9.193-20.446-20.539-20.446c-11.344,0-20.542,9.153-20.542,20.446c0,4.966,1.78,9.517,4.736,13.058l15.821,22.724
			l16.054-23.053C46.533,33.548,50.545,27.83,50.428,21.54"/>
	</g>
	<g id="Livello_1_1_">
	</g>
</g>
<g>
	<path fill="none" stroke="#FFFFFF" stroke-width="2" stroke-miterlimit="10" d="M38.865,44.432l-8.96,12.89l-8.988-12.905
		c-8.731,1.109-14.895,3.799-14.895,6.94c0,4.135,10.657,7.488,23.803,7.488c13.146,0,23.803-3.354,23.803-7.488
		C53.628,48.23,47.528,45.551,38.865,44.432z"/>
</g>
</svg>
