<?xml version="1.0" encoding="utf-8"?>
<!-- Generator: Adobe Illustrator 15.0.0, SVG Export Plug-In . SVG Version: 6.00 Build 0)  -->
<!DOCTYPE svg PUBLIC "-//W3C//DTD SVG 1.1//EN" "http://www.w3.org/Graphics/SVG/1.1/DTD/svg11.dtd">
<svg version="1.1" id="Layer_1" xmlns="http://www.w3.org/2000/svg" xmlns:xlink="http://www.w3.org/1999/xlink" x="0px" y="0px"
	 width="16px" height="16px" viewBox="0 0 16 16" enable-background="new 0 0 16 16" xml:space="preserve">
<path fill="#FFFFFF" d="M10,15V8h3c0.484,0,1-0.375,1-1c0-0.461-0.287-0.695-0.54-1L9,0.625C8.688,0.242,8.445,0,8,0
	S7.312,0.242,7,0.625L2.54,6C2.287,6.305,2,6.539,2,7c0,0.625,0.516,1,1,1h3v7c0,0.55,0.45,1,1,1h2C9.55,16,10,15.55,10,15z"/>
</svg>
