<?xml version="1.0" encoding="utf-8"?>
<!-- Generator: Adobe Illustrator 15.0.0, SVG Export Plug-In . SVG Version: 6.00 Build 0)  -->
<!DOCTYPE svg PUBLIC "-//W3C//DTD SVG 1.1//EN" "http://www.w3.org/Graphics/SVG/1.1/DTD/svg11.dtd">
<svg version="1.1" id="Layer_1" xmlns="http://www.w3.org/2000/svg" xmlns:xlink="http://www.w3.org/1999/xlink" x="0px" y="0px"
	 width="100px" height="100px" viewBox="0 0 100 100" enable-background="new 0 0 100 100" xml:space="preserve">
<g>
	<path fill="#FFFFFF" d="M51.96,16.453c0-1.091-0.88-1.961-1.961-1.961C30.416,14.492,14.49,30.418,14.49,50
		c0,1.089,0.874,1.962,1.962,1.962c1.082,0,1.961-0.873,1.961-1.962c0-17.416,14.167-31.585,31.586-31.585
		C51.08,18.415,51.96,17.532,51.96,16.453z"/>
	<path fill="#FFFFFF" d="M48.037,68.673c0,1.078,0.883,1.961,1.961,1.961c11.379,0,20.633-9.255,20.633-20.633
		c0-1.088-0.879-1.961-1.962-1.961c-1.087,0-1.961,0.873-1.961,1.961c0,9.208-7.495,16.71-16.71,16.71
		C48.92,66.711,48.037,67.582,48.037,68.673z"/>
	<path fill="#FFFFFF" d="M51.96,31.338c0-1.088-0.87-1.962-1.961-1.962c-11.373,0-20.624,9.246-20.624,20.625
		c0,1.082,0.876,1.961,1.961,1.961c1.082,0,1.961-0.88,1.961-1.961c0-9.208,7.496-16.702,16.702-16.702
		C51.09,33.299,51.96,32.419,51.96,31.338z"/>
	<path fill="#FFFFFF" d="M49.999,0.333C22.611,0.333,0.333,22.613,0.333,50c0,27.381,22.279,49.667,49.666,49.667
		S99.667,77.382,99.667,50C99.667,22.613,77.386,0.333,49.999,0.333z M49.999,95.743C24.771,95.743,4.255,75.222,4.255,50
		c0-25.23,20.517-45.744,45.744-45.744C75.22,4.257,95.746,24.771,95.746,50C95.746,75.222,75.22,95.743,49.999,95.743z"/>
	<path fill="#FFFFFF" d="M83.549,48.039c-1.089,0-1.962,0.879-1.962,1.961c0,17.422-14.173,31.585-31.588,31.585
		c-1.085,0-1.961,0.884-1.961,1.962c0,1.091,0.876,1.962,1.961,1.962c19.579,0,35.512-15.927,35.512-35.509
		C85.511,48.918,84.627,48.039,83.549,48.039z"/>
	<path fill="#FFFFFF" d="M59.569,50c0-5.28-4.293-9.57-9.571-9.57c-5.277,0-9.567,4.291-9.567,9.57c0,5.279,4.29,9.57,9.567,9.57
		C55.275,59.571,59.569,55.28,59.569,50z M44.354,50c0-3.117,2.528-5.648,5.645-5.648c3.115,0,5.647,2.532,5.647,5.648
		c0,3.11-2.534,5.647-5.647,5.647C46.882,55.647,44.354,53.11,44.354,50z"/>
</g>
</svg>
