<?xml version="1.0" encoding="utf-8"?>
<!-- Generator: Adobe Illustrator 15.0.0, SVG Export Plug-In . SVG Version: 6.00 Build 0)  -->
<!DOCTYPE svg PUBLIC "-//W3C//DTD SVG 1.1//EN" "http://www.w3.org/Graphics/SVG/1.1/DTD/svg11.dtd">
<svg version="1.1" id="Your_Icon" xmlns="http://www.w3.org/2000/svg" xmlns:xlink="http://www.w3.org/1999/xlink" x="0px" y="0px"
	 width="100px" height="100px" viewBox="0 0 100 100" enable-background="new 0 0 100 100" xml:space="preserve">
<path fill="#FFFFFF" d="M78.858,44.417L98.539,20.78c1.567-1.568,1.568-4.119,0-5.688c-0.716-0.715-1.641-1.088-2.578-1.149
	c-0.021-1.172-0.472-2.336-1.36-3.23c-0.882-0.882-2.03-1.326-3.188-1.358c-0.03-1.157-0.479-2.305-1.355-3.186
	c-0.874-0.873-2.009-1.313-3.154-1.357c-0.081-0.912-0.446-1.801-1.141-2.498c-1.569-1.568-4.123-1.568-5.691,0.001L56.422,21.979
	c-4.032,4.033-5.53,9.794-4.089,15.254l-6.388,5.596l-5.262-4.613c0,0-19.983-24.818-27.134-32.666
	c-2.866-3.141-7.9-3.006-10.91,0.002c-2.28,2.281-2.606,5.561-1.646,8.445c1.091,3.271,4.218,15.336,11.659,24.302
	c6.136,7.383,13.556,10.14,16.408,10.976l4.142,4.723L6.804,77.14c-4.657,4.658-4.657,12.236,0,16.895
	c4.659,4.659,12.234,4.659,16.894,0l22.297-25.441l22.719,25.911c4.66,4.659,12.234,4.663,16.896,0.002
	c4.657-4.66,4.657-12.236,0-16.896L58.74,54.052l4.86-5.546C69.062,49.947,74.827,48.452,78.858,44.417z M21.592,91.977
	c-3.509,3.485-9.207,3.479-12.71-0.024c-3.501-3.502-3.507-9.197-0.02-12.707L35.14,56.212l8.888,10.138L21.592,91.977z
	 M83.527,92.426c-3.502,3.5-9.197,3.51-12.71,0.021L30.822,46.806c0,0-9.955-2.862-15.906-10.385
	C7.665,27.256,3.583,12.503,3.583,12.503c-0.543-1.659-0.179-3.554,1.136-4.87c1.854-1.852,4.862-1.858,6.726-0.021l27.131,32.669
	l44.976,39.43C87.037,83.229,87.029,88.925,83.527,92.426z M62.566,45.174l-6.054,6.921l-8.334-7.306l7.584-6.645l-0.387-0.851
	c-1.541-4.636-0.374-9.655,3.037-13.136l23.81-19.809c0.426-0.362,1.053-0.346,1.459,0.048c0.799,0.77,0.02,1.55,0.02,1.55
	C83.614,6.026,62.05,27.612,62.05,27.612l2.078,2.08L85.693,8.127c0.688-0.525,1.656-0.502,2.283,0.125
	c0.636,0.635,0.649,1.632,0.098,2.317L66.595,32.165l2.087,2.07l21.37-21.443l0.003,0.001l0.001-0.001
	c0.681-0.677,1.784-0.678,2.464,0.001c0.68,0.68,0.685,1.787,0,2.465L71.146,36.709l2.08,2.08l21.7-21.616
	c0.427-0.421,1.109-0.421,1.53,0c0.404,0.399,0.409,1.037,0.047,1.459L76.68,42.422c-3.479,3.415-8.498,4.583-13.133,3.04
	L62.566,45.174z"/>
</svg>
