<?xml version="1.0" encoding="utf-8"?>
<!-- Generator: Adobe Illustrator 15.0.0, SVG Export Plug-In . SVG Version: 6.00 Build 0)  -->
<!DOCTYPE svg PUBLIC "-//W3C//DTD SVG 1.1//EN" "http://www.w3.org/Graphics/SVG/1.1/DTD/svg11.dtd">
<svg version="1.1" id="Layer_1" xmlns="http://www.w3.org/2000/svg" xmlns:xlink="http://www.w3.org/1999/xlink" x="0px" y="0px"
	 width="71.467px" height="71.465px" viewBox="0 0 71.467 71.465" enable-background="new 0 0 71.467 71.465" xml:space="preserve">
<g>
	<path fill="#FFFFFF" d="M71.233,11.542l-56.999,0.002l-2.332-7.772H0V8.44l8.651,0.001l8.074,22.71l9.258,25.224H57.24v-4.607
		H29.208l-2.872-9.26h34.741L71.233,11.542z M24.656,37.9l-2.488-5.277l-5.943-16.437l48.725,0.001L57.603,37.9H24.656z"/>
	<path fill="#FFFFFF" d="M35.892,64.186c0,2.562-2.077,4.641-4.639,4.641s-4.639-2.077-4.639-4.641c0-2.562,2.078-4.64,4.639-4.64
		C33.815,59.546,35.892,61.624,35.892,64.186z"/>
	<path fill="#FFFFFF" d="M57.097,64.163c0,2.55-2.066,4.616-4.617,4.616s-4.615-2.066-4.615-4.616s2.064-4.617,4.615-4.617
		C55.028,59.546,57.097,61.613,57.097,64.163z"/>
</g>
</svg>
