<?xml version="1.0" encoding="utf-8"?>
<!-- Generator: Adobe Illustrator 15.0.0, SVG Export Plug-In . SVG Version: 6.00 Build 0)  -->
<!DOCTYPE svg PUBLIC "-//W3C//DTD SVG 1.1//EN" "http://www.w3.org/Graphics/SVG/1.1/DTD/svg11.dtd">
<svg version="1.1" id="Layer_1" xmlns="http://www.w3.org/2000/svg" xmlns:xlink="http://www.w3.org/1999/xlink" x="0px" y="0px"
	 width="60px" height="60px" viewBox="20 20 60 60" enable-background="new 20 20 60 60" xml:space="preserve">
<g>
	<path fill="#FFFFFF" d="M68.331,20.017H31.578C25.194,20.017,20,25.216,20,31.608v12.244v24.556C20,74.799,25.194,80,31.578,80
		h36.755c6.386,0,11.577-5.201,11.577-11.592V43.852V31.607C79.908,25.214,74.717,20.017,68.331,20.017z M71.651,26.929l1.324-0.005
		v1.32v8.847l-10.12,0.033l-0.033-10.166L71.651,26.929z M41.404,43.852c1.918-2.659,5.032-4.403,8.551-4.403
		c3.517,0,6.631,1.744,8.547,4.403c1.248,1.734,1.997,3.856,1.997,6.156c0,5.821-4.734,10.556-10.546,10.556
		c-5.816,0-10.545-4.734-10.545-10.556C39.411,47.708,40.156,45.586,41.404,43.852z M74.07,68.407c0,3.171-2.574,5.746-5.739,5.746
		H31.578c-3.166,0-5.741-2.575-5.741-5.746V43.852h8.942c-0.772,1.903-1.206,3.979-1.206,6.156c0,9.041,7.348,16.403,16.382,16.403
		c9.034,0,16.382-7.362,16.382-16.403c0-2.176-0.438-4.253-1.209-6.156h8.941V68.407z"/>
</g>
</svg>
