<?xml version="1.0" encoding="utf-8"?>
<!-- Generator: Adobe Illustrator 15.0.0, SVG Export Plug-In . SVG Version: 6.00 Build 0)  -->
<!DOCTYPE svg PUBLIC "-//W3C//DTD SVG 1.1//EN" "http://www.w3.org/Graphics/SVG/1.1/DTD/svg11.dtd">
<svg version="1.1" id="Ebene_1" xmlns="http://www.w3.org/2000/svg" xmlns:xlink="http://www.w3.org/1999/xlink" x="0px" y="0px"
	 width="100px" height="100px" viewBox="0 0 100 100" enable-background="new 0 0 100 100" xml:space="preserve">
<g>
	<g>
		<path fill="#FFFFFF" d="M50,6.25c24.125,0,43.75,19.625,43.75,43.75S74.125,93.75,50,93.75S6.25,74.125,6.25,50
			S25.875,6.25,50,6.25 M50,0C22.384,0,0,22.384,0,50s22.384,50,50,50s50-22.384,50-50S77.616,0,50,0L50,0z"/>
	</g>
	<g>
		<path fill="#FFFFFF" d="M50,37.5c-15.065,0-29.584-3.176-43.156-9.436l2.62-5.676C22.208,28.268,35.846,31.25,50,31.25
			c14.145,0,27.775-2.979,40.52-8.854l2.617,5.676C79.564,34.328,65.051,37.5,50,37.5z"/>
	</g>
	<g>
		<path fill="#FFFFFF" d="M90.535,77.611C77.787,71.732,64.148,68.75,50,68.75c-14.152,0-27.789,2.982-40.536,8.861l-2.62-5.676
			C20.418,65.674,34.94,62.5,50,62.5c15.057,0,29.578,3.174,43.156,9.436L90.535,77.611z"/>
	</g>
	<g>
		<path fill="#FFFFFF" d="M40.717,98.895C32.664,83.973,28.41,67.064,28.41,50c0-16.978,4.216-33.817,12.193-48.698l5.507,2.954
			C38.619,18.231,34.66,34.049,34.66,50c0,16.032,3.996,31.913,11.556,45.927L40.717,98.895z"/>
	</g>
	<g>
		<path fill="#FFFFFF" d="M59.285,98.895l-5.501-2.968C61.346,81.913,65.34,66.032,65.34,50c0-15.958-3.959-31.775-11.449-45.744
			l5.506-2.954C67.375,16.176,71.59,33.016,71.59,50C71.59,67.064,67.334,83.973,59.285,98.895z"/>
	</g>
</g>
</svg>
